<svg id="visual" viewBox="0 0 900 600" width="900" height="600" xmlns="http://www.w3.org/2000/svg" xmlns:xlink="http://www.w3.org/1999/xlink" version="1.1"><path d="M0 55L18.8 60C37.7 65 75.3 75 112.8 79C150.3 83 187.7 81 225.2 74C262.7 67 300.3 55 337.8 55C375.3 55 412.7 67 450.2 70C487.7 73 525.3 67 562.8 65C600.3 63 637.7 65 675.2 66C712.7 67 750.3 67 787.8 63C825.3 59 862.7 51 881.3 47L900 43L900 0L881.3 0C862.7 0 825.3 0 787.8 0C750.3 0 712.7 0 675.2 0C637.7 0 600.3 0 562.8 0C525.3 0 487.7 0 450.2 0C412.7 0 375.3 0 337.8 0C300.3 0 262.7 0 225.2 0C187.7 0 150.3 0 112.8 0C75.3 0 37.7 0 18.8 0L0 0Z" fill="#36b796"></path><path d="M0 133L18.8 147C37.7 161 75.3 189 112.8 196C150.3 203 187.7 189 225.2 170C262.7 151 300.3 127 337.8 124C375.3 121 412.7 139 450.2 149C487.7 159 525.3 161 562.8 171C600.3 181 637.7 199 675.2 198C712.7 197 750.3 177 787.8 174C825.3 171 862.7 185 881.3 192L900 199L900 41L881.3 45C862.7 49 825.3 57 787.8 61C750.3 65 712.7 65 675.2 64C637.7 63 600.3 61 562.8 63C525.3 65 487.7 71 450.2 68C412.7 65 375.3 53 337.8 53C300.3 53 262.7 65 225.2 72C187.7 79 150.3 81 112.8 77C75.3 73 37.7 63 18.8 58L0 53Z" fill="#26a988"></path><path d="M0 193L18.8 203C37.7 213 75.3 233 112.8 240C150.3 247 187.7 241 225.2 227C262.7 213 300.3 191 337.8 186C375.3 181 412.7 193 450.2 201C487.7 209 525.3 213 562.8 222C600.3 231 637.7 245 675.2 240C712.7 235 750.3 211 787.8 208C825.3 205 862.7 223 881.3 232L900 241L900 197L881.3 190C862.7 183 825.3 169 787.8 172C750.3 175 712.7 195 675.2 196C637.7 197 600.3 179 562.8 169C525.3 159 487.7 157 450.2 147C412.7 137 375.3 119 337.8 122C300.3 125 262.7 149 225.2 168C187.7 187 150.3 201 112.8 194C75.3 187 37.7 159 18.8 145L0 131Z" fill="#119b7a"></path><path d="M0 319L18.8 343C37.7 367 75.3 415 112.8 426C150.3 437 187.7 411 225.2 408C262.7 405 300.3 425 337.8 430C375.3 435 412.7 425 450.2 407C487.7 389 525.3 363 562.8 361C600.3 359 637.7 381 675.2 374C712.7 367 750.3 331 787.8 324C825.3 317 862.7 339 881.3 350L900 361L900 239L881.3 230C862.7 221 825.3 203 787.8 206C750.3 209 712.7 233 675.2 238C637.7 243 600.3 229 562.8 220C525.3 211 487.7 207 450.2 199C412.7 191 375.3 179 337.8 184C300.3 189 262.7 211 225.2 225C187.7 239 150.3 245 112.8 238C75.3 231 37.7 211 18.8 201L0 191Z" fill="#008c6d"></path><path d="M0 415L18.8 433C37.7 451 75.3 487 112.8 492C150.3 497 187.7 471 225.2 465C262.7 459 300.3 473 337.8 479C375.3 485 412.7 483 450.2 477C487.7 471 525.3 461 562.8 458C600.3 455 637.7 459 675.2 448C712.7 437 750.3 411 787.8 408C825.3 405 862.7 425 881.3 435L900 445L900 359L881.3 348C862.7 337 825.3 315 787.8 322C750.3 329 712.7 365 675.2 372C637.7 379 600.3 357 562.8 359C525.3 361 487.7 387 450.2 405C412.7 423 375.3 433 337.8 428C300.3 423 262.7 403 225.2 406C187.7 409 150.3 435 112.8 424C75.3 413 37.7 365 18.8 341L0 317Z" fill="#007c61"></path><path d="M0 601L18.8 601C37.7 601 75.3 601 112.8 601C150.3 601 187.7 601 225.2 601C262.7 601 300.3 601 337.8 601C375.3 601 412.7 601 450.2 601C487.7 601 525.3 601 562.8 601C600.3 601 637.7 601 675.2 601C712.7 601 750.3 601 787.8 601C825.3 601 862.7 601 881.3 601L900 601L900 443L881.3 433C862.7 423 825.3 403 787.8 406C750.3 409 712.7 435 675.2 446C637.7 457 600.3 453 562.8 456C525.3 459 487.7 469 450.2 475C412.7 481 375.3 483 337.8 477C300.3 471 262.7 457 225.2 463C187.7 469 150.3 495 112.8 490C75.3 485 37.7 449 18.8 431L0 413Z" fill="#006c55"></path></svg>